<?xml version="1.0" encoding="utf-8"?>
<!-- Generator: Adobe Illustrator 25.4.1, SVG Export Plug-In . SVG Version: 6.00 Build 0)  -->
<svg version="1.1" id="logotype" xmlns="http://www.w3.org/2000/svg" xmlns:xlink="http://www.w3.org/1999/xlink" x="0px" y="0px"
	 viewBox="0 0 500 500" style="enable-background:new 0 0 500 500;" xml:space="preserve">
<style type="text/css">
	.st0{fill:#75D1F7;}
	.st1{fill:#3BC6F4;}
	.st2{fill:#0C2949;}
	.st3{fill:#FFFFFF;}
</style>
<polygon class="st0" points="153.7,171.2 249.6,114.6 345,171.5 248.5,227.8 "/>
<polygon class="st1" points="153.7,171.2 153.6,283.4 249.8,338.2 248.5,227.8 "/>
<polygon class="st1" points="249.8,227.8 345,171.5 345.2,283.7 249.8,338.2 "/>
<polygon class="st2" points="71.3,122.9 71.3,235.7 153.7,283.7 153.7,171.5 "/>
<polygon class="st2" points="71.5,122.9 167.1,66.2 249.2,114.8 153.7,170.8 "/>
<polygon class="st2" points="249.2,114.8 333.4,66.2 427.4,123.5 344.3,171.5 "/>
<polygon class="st2" points="345.7,171.5 427.1,122.9 427.4,235.7 345,283.7 "/>
<polygon class="st2" points="153.6,282.7 249.8,339.1 250.8,433.8 153.7,377.4 "/>
<polygon class="st2" points="249.2,338.2 345.7,283.7 345,378.7 249.8,433.8 "/>
<path class="st3" d="M429.6,119.5l-94.8-56.6c-1.3-0.8-3-0.8-4.3,0l-80.9,46.8l-81.4-47.1c-1.3-0.8-3-0.8-4.3,0l-94.8,56.6
	c-1.3,0.8-2.1,2.2-2.1,3.6v112.3c0,1.5,0.8,2.9,2.1,3.7l80.6,47.3l0.1,92.1c0,1.5,0.8,2.9,2.1,3.7l95.8,55.6
	c0.7,0.4,1.4,0.6,2.1,0.6c0.7,0,1.5-0.2,2.1-0.6l95.2-55.1c1.3-0.8,2.1-2.1,2.1-3.7l0.5-92.9l79.7-46.8c1.3-0.8,2.1-2.2,2.1-3.7
	V123.1C431.7,121.6,430.9,120.2,429.6,119.5z M332.6,71.4l86.5,51.7l-74,43.5l-87.1-52L332.6,71.4z M249.1,119.3l87.2,52l-87.8,51.6
	L162,171.2L249.1,119.3z M158,178.7l86.3,51.5v99.9l-86.4-50.1L158,178.7z M252.8,230.2l88-51.7l0.1,102L252.8,332V230.2z
	 M166.1,71.1l74.7,43.2l-87.1,52l-74-43.5L166.1,71.1z M149.4,276l-73.8-43.3V130.3l73.9,43.4L149.4,276z M158.4,375.7l-0.1-85.6
	l85.9,49.8l0.1,85.7L158.4,375.7z M340.9,376.2l-88.1,51l-0.1-85.3l88.7-51.8L340.9,376.2z M423.2,233l-73.8,43.3l-0.1-102.3
	l73.9-43.4V233z"/>
</svg>
