<?xml version="1.0" standalone="no"?>
<!DOCTYPE svg PUBLIC "-//W3C//DTD SVG 20010904//EN"
 "http://www.w3.org/TR/2001/REC-SVG-20010904/DTD/svg10.dtd">
<svg version="1.0" xmlns="http://www.w3.org/2000/svg"
 width="192.000000pt" height="192.000000pt" viewBox="0 0 192.000000 192.000000"
 preserveAspectRatio="xMidYMid meet">

<g transform="translate(0.000000,192.000000) scale(0.100000,-0.100000)"
fill="#2e6adc" stroke="none">
<path d="M710 1901 c-6 -13 -10 -152 -10 -385 l0 -366 -230 0 c-216 0 -230 -1
-240 -19 -6 -13 -10 -202 -10 -545 l0 -526 -105 0 c-85 0 -107 -3 -111 -15 -4
-8 -1 -22 6 -30 11 -13 132 -15 950 -15 818 0 939 2 950 15 7 8 10 22 6 30 -4
12 -31 15 -161 15 l-155 0 0 918 c0 701 -3 921 -12 930 -9 9 -120 12 -440 12
-412 0 -428 -1 -438 -19z m825 -941 l0 -895 -47 -3 -48 -3 0 156 c0 174 -8
203 -60 225 -50 21 -136 8 -168 -24 -27 -26 -27 -28 -30 -191 l-4 -165 -29 0
-29 0 -2 543 -3 542 -172 3 -173 2 0 355 0 355 383 -2 382 -3 0 -895z m-480
-385 l0 -510 -382 -3 -383 -2 0 515 0 515 383 -2 382 -3 0 -510z m320 -217 c3
-13 4 -84 3 -158 l-3 -135 -62 -3 -63 -3 0 154 c0 84 3 157 7 160 3 4 30 7 59
7 47 0 54 -3 59 -22z"/>
<path d="M872 1778 c-14 -14 -17 -205 -4 -226 7 -9 39 -12 128 -10 l119 3 0
120 0 120 -115 3 c-81 2 -119 -1 -128 -10z m186 -115 l3 -63 -66 0 -65 0 0 65
0 66 63 -3 62 -3 3 -62z"/>
<path d="M1192 1778 c-14 -14 -17 -205 -4 -226 7 -9 39 -12 128 -10 l119 3 0
120 0 120 -115 3 c-81 2 -119 -1 -128 -10z m186 -115 l3 -63 -66 0 -65 0 0 65
0 66 63 -3 62 -3 3 -62z"/>
<path d="M872 1458 c-14 -14 -17 -205 -4 -226 7 -9 39 -12 128 -10 l119 3 0
120 0 120 -115 3 c-81 2 -119 -1 -128 -10z m186 -115 l3 -63 -66 0 -65 0 0 65
0 66 63 -3 62 -3 3 -62z"/>
<path d="M1192 1458 c-14 -14 -17 -205 -4 -226 7 -9 39 -12 128 -10 l119 3 0
120 0 120 -115 3 c-81 2 -119 -1 -128 -10z m186 -115 l3 -63 -66 0 -65 0 0 65
0 66 63 -3 62 -3 3 -62z"/>
<path d="M1191 1131 c-17 -31 -14 -206 3 -220 9 -8 52 -11 127 -9 l114 3 0
120 0 120 -117 3 c-108 2 -118 1 -127 -17z m187 -108 l3 -63 -66 0 -65 0 0 65
0 66 63 -3 62 -3 3 -62z"/>
<path d="M1192 818 c-14 -14 -17 -205 -4 -226 7 -9 39 -12 128 -10 l119 3 0
120 0 120 -115 3 c-81 2 -119 -1 -128 -10z m186 -115 l3 -63 -66 0 -65 0 0 65
0 66 63 -3 62 -3 3 -62z"/>
<path d="M386 1004 c-12 -30 -7 -199 7 -217 11 -15 28 -17 127 -15 l115 3 0
120 0 120 -121 3 c-104 2 -123 0 -128 -14z m192 -106 l-3 -63 -62 -3 -63 -3 0
66 0 65 65 0 66 0 -3 -62z"/>
<path d="M706 1004 c-12 -30 -7 -199 7 -217 11 -15 28 -17 127 -15 l115 3 0
120 0 120 -121 3 c-104 2 -123 0 -128 -14z m192 -106 l-3 -63 -62 -3 -63 -3 0
66 0 65 65 0 66 0 -3 -62z"/>
<path d="M392 688 c-17 -17 -16 -198 1 -221 11 -15 28 -17 127 -15 l115 3 0
120 0 120 -115 3 c-81 2 -119 -1 -128 -10z m186 -110 l-3 -63 -62 -3 -63 -3 0
66 0 65 65 0 66 0 -3 -62z"/>
<path d="M706 684 c-12 -30 -7 -199 7 -217 11 -15 28 -17 127 -15 l115 3 0
120 0 120 -121 3 c-104 2 -123 0 -128 -14z m192 -106 l-3 -63 -62 -3 -63 -3 0
66 0 65 65 0 66 0 -3 -62z"/>
<path d="M386 364 c-12 -30 -7 -199 7 -217 11 -15 28 -17 127 -15 l115 3 0
120 0 120 -121 3 c-104 2 -123 0 -128 -14z m192 -106 l-3 -63 -62 -3 -63 -3 0
66 0 65 65 0 66 0 -3 -62z"/>
<path d="M706 364 c-3 -8 -6 -60 -6 -114 0 -71 4 -101 14 -109 9 -8 52 -11
127 -9 l114 3 0 120 0 120 -121 3 c-104 2 -123 0 -128 -14z m192 -106 l-3 -63
-62 -3 -63 -3 0 66 0 65 65 0 66 0 -3 -62z"/>
</g>
</svg>
